<?xml version="1.0" standalone="no"?>
<!DOCTYPE svg PUBLIC "-//W3C//DTD SVG 20010904//EN"
 "http://www.w3.org/TR/2001/REC-SVG-20010904/DTD/svg10.dtd">
<svg version="1.0" xmlns="http://www.w3.org/2000/svg"
 width="576.000000pt" height="576.000000pt" viewBox="0 0 576.000000 576.000000"
 preserveAspectRatio="xMidYMid meet">
<metadata>
Created by potrace 1.14, written by Peter Selinger 2001-2017
</metadata>
<g transform="translate(0.000000,576.000000) scale(0.100000,-0.100000)"
fill="#000000" stroke="none">
<path d="M3123 5288 c-62 -34 -113 -67 -113 -73 0 -7 35 -32 78 -55 365 -200
1920 -1065 1930 -1075 11 -10 12 -206 4 -1136 -6 -618 -9 -1125 -7 -1127 2 -2
64 28 138 67 l134 71 7 298 c3 163 9 669 12 1123 l7 827 -24 14 c-13 9 -143
81 -289 160 -146 80 -601 331 -1012 557 -411 226 -749 411 -750 410 -2 0 -54
-28 -115 -61z"/>
<path d="M2540 4944 c-107 -58 -355 -193 -550 -299 -195 -106 -555 -302 -800
-435 -245 -133 -451 -248 -459 -255 -21 -20 -41 -2220 -20 -2240 12 -12 1266
-725 1275 -725 1 0 54 -30 116 -66 62 -36 145 -83 183 -104 39 -21 149 -84
245 -139 l175 -100 70 38 c172 94 1192 649 1636 890 l317 171 6 353 c3 193 7
698 9 1122 l2 770 -870 492 c-478 270 -923 522 -988 558 -64 37 -125 69 -135
71 -9 3 -104 -43 -212 -102z m1082 -1080 l3 -226 160 225 160 226 138 1 c108
0 137 -3 131 -12 -4 -7 -82 -111 -173 -231 -91 -121 -166 -226 -165 -235 0
-10 82 -136 182 -280 100 -145 182 -266 182 -268 0 -2 -65 -4 -144 -4 l-145 0
-138 205 -138 206 -27 -33 -28 -32 0 -173 0 -173 -120 0 -120 0 0 515 0 515
120 0 120 0 2 -226z m-898 -229 c265 -46 444 -190 515 -415 61 -193 41 -461
-50 -644 -67 -135 -181 -246 -324 -317 -133 -65 -170 -71 -442 -76 l-243 -5 0
-354 0 -354 -245 0 -245 0 0 1090 0 1090 474 0 c376 0 491 -3 560 -15z"/>
<path d="M2180 2915 l0 -325 123 0 c280 1 389 54 438 212 24 75 25 188 3 253
-10 29 -35 67 -63 96 -70 71 -137 89 -342 89 l-159 0 0 -325z"/>
</g>
</svg>
